<svg xmlns="http://www.w3.org/2000/svg" version="1.1" xmlns:xlink="http://www.w3.org/1999/xlink" xmlns:svgjs="http://svgjs.dev/svgjs" width="1000" height="676" viewBox="0 0 1000 676"><g transform="matrix(1,0,0,1,-0.5199674363992699,0.2736842105263122)"><svg viewBox="0 0 365 247" data-background-color="#fefee2" preserveAspectRatio="xMidYMid meet" height="676" width="1000" xmlns="http://www.w3.org/2000/svg" xmlns:xlink="http://www.w3.org/1999/xlink"><g id="tight-bounds" transform="matrix(1,0,0,1,0.18978811428573295,-0.09999999999999432)"><svg viewBox="0 0 364.62042377142853 247.2" height="247.2" width="364.62042377142853"><g><svg viewBox="0 0 364.62042377142853 247.2" height="247.2" width="364.62042377142853"><g transform="matrix(1,0,0,1,175.33585234285712,0)"><svg viewBox="0 0 189.2845714285714 247.2" height="247.2" width="189.2845714285714"><g id="textblocktransform"><svg viewBox="0 0 189.2845714285714 247.2" height="247.2" width="189.2845714285714" id="textblock"><g><svg viewBox="0 0 189.2845714285714 247.2" height="247.2" width="189.2845714285714"><g transform="matrix(1,0,0,1,0,0)"><svg width="189.2845714285714" viewBox="3.9 -35 26.8 35" height="247.2" data-palette-color="#7fc37e"><g class="wordmark-text-0" data-fill-palette-color="primary" id="text-0"><path d="M27.9 0L27.9-26.75 18.8 0 15.75 0 6.7-26.75 6.7 0 3.9 0 3.9-35 6.7-35 17.25-4.3 27.9-35 30.7-35 30.7 0 27.9 0Z" fill="#7fc37e" data-fill-palette-color="primary"></path></g></svg></g></svg></g></svg></g></svg></g><g transform="matrix(1,0,0,1,0,65.11106742857143)"><svg viewBox="0 0 116.97786514285713 116.97786514285713" height="116.97786514285713" width="116.97786514285713"><g data-palette-color="#7fc37e"><rect width="31.973949805714284" height="116.97786514285713" fill="#7fc37e" stroke="transparent" data-fill-palette-color="accent" x="0" fill-opacity="0.5"></rect><rect width="31.973949805714284" height="116.97786514285713" fill="#7fc37e" stroke="transparent" data-fill-palette-color="accent" x="38.99262171428571" fill-opacity="0.75"></rect><rect width="31.973949805714284" height="116.97786514285713" fill="#7fc37e" stroke="transparent" data-fill-palette-color="accent" x="77.98524342857142" fill-opacity="1"></rect></g></svg></g></svg></g><defs></defs></svg><rect width="364.62042377142853" height="247.2" fill="none" stroke="none" visibility="hidden"></rect></g></svg></g></svg>